<svg xmlns="http://www.w3.org/2000/svg" width="800" height="90" viewBox="0 0 800 90" role="img" aria-labelledby="title desc">
<title id="title">Joshua&#x27;s Blurbs</title>
<desc id="desc">ABOUT ME // SOFTWARE // AI</desc>
<defs>
 <linearGradient id="blue" x2="0" y2="1"><stop stop-color="#367bea"/><stop offset=".47" stop-color="#245bda"/><stop offset=".48" stop-color="#1748c4"/><stop offset="1" stop-color="#143b9e"/></linearGradient>
 <linearGradient id="silver" x2="0" y2="1"><stop stop-color="#ffffff"/><stop offset="1" stop-color="#c9d2df"/></linearGradient>
 <pattern id="grid" width="16" height="16" patternUnits="userSpaceOnUse"><path d="M16 0H0V16" fill="none" stroke="#cfdaeb" stroke-width=".7"/></pattern>
 </defs>
<rect x="3" y="4" width="794" height="83" rx="5" fill="#e7edf7"/><rect x="1" y="1" width="794" height="84" rx="4" fill="#f4f6fb" stroke="#9aaac0" stroke-width="1"/><rect x="3" y="3" width="790" height="80" rx="2" fill="none" stroke="#ffffff" stroke-width="1"/><rect x="5" y="5" width="786" height="76" rx="2" fill="#ffffff"/><rect x="5" y="5" width="12" height="76" rx="0" fill="#e94197"/><rect x="18" y="5" width="773" height="8" rx="0" fill="url(#blue)"/><text x="34" y="54" fill="#152744" font-family="Arial, Helvetica, sans-serif" font-size="36" font-weight="700" text-anchor="start">Joshua&#x27;s Blurbs</text><text x="35" y="76" fill="#4b607b" font-family="Consolas, Liberation Mono, monospace" font-size="12" font-weight="700" text-anchor="start">ABOUT ME // SOFTWARE // AI</text><rect x="705" y="31" width="11" height="11" rx="0" fill="#e94197"/><rect x="705" y="48" width="11" height="11" rx="0" fill="#e7edf7"/><rect x="722" y="31" width="11" height="11" rx="0" fill="#ffad55"/><rect x="722" y="48" width="11" height="11" rx="0" fill="#e7edf7"/><rect x="739" y="31" width="11" height="11" rx="0" fill="#b6ed68"/><rect x="739" y="48" width="11" height="11" rx="0" fill="#e7edf7"/><rect x="756" y="31" width="11" height="11" rx="0" fill="#73c7ff"/><rect x="756" y="48" width="11" height="11" rx="0" fill="#e7edf7"/>
</svg>
