<svg xmlns="http://www.w3.org/2000/svg" width="800" height="90" viewBox="0 0 800 90" role="img" aria-labelledby="title desc">
<title id="title">Joshua&#x27;s Blurbs</title>
<desc id="desc">ABOUT ME // SOFTWARE // AI</desc>
<defs>
 <linearGradient id="oxblood" x2="0" y2="1"><stop stop-color="#ba3a4d"/><stop offset=".47" stop-color="#a12a3e"/><stop offset=".48" stop-color="#7d1d30"/><stop offset="1" stop-color="#5b1524"/></linearGradient>
 <linearGradient id="silver" x2="0" y2="1"><stop stop-color="#ded3cc"/><stop offset="1" stop-color="#a3908d"/></linearGradient>
 <pattern id="grid" width="16" height="16" patternUnits="userSpaceOnUse"><path d="M16 0H0V16" fill="none" stroke="#32252c" stroke-width=".7"/></pattern>
 </defs>
<rect x="3" y="4" width="794" height="83" rx="5" fill="#0e0b0e"/><rect x="1" y="1" width="794" height="84" rx="4" fill="#151114" stroke="#735761" stroke-width="1"/><rect x="3" y="3" width="790" height="80" rx="2" fill="none" stroke="#211a1e" stroke-width="1"/><rect x="5" y="5" width="786" height="76" rx="2" fill="#211a1e"/><rect x="5" y="5" width="12" height="76" rx="0" fill="#d53b4d"/><rect x="18" y="5" width="773" height="8" rx="0" fill="url(#oxblood)"/><text x="34" y="54" fill="#fff6ef" font-family="Arial, Helvetica, sans-serif" font-size="36" font-weight="700" text-anchor="start">Joshua&#x27;s Blurbs</text><text x="35" y="76" fill="#cdbeb8" font-family="Consolas, Liberation Mono, monospace" font-size="12" font-weight="700" text-anchor="start">ABOUT ME // SOFTWARE // AI</text><rect x="705" y="31" width="11" height="11" rx="0" fill="#d53b4d"/><rect x="705" y="48" width="11" height="11" rx="0" fill="#0e0b0e"/><rect x="722" y="31" width="11" height="11" rx="0" fill="#d9a681"/><rect x="722" y="48" width="11" height="11" rx="0" fill="#0e0b0e"/><rect x="739" y="31" width="11" height="11" rx="0" fill="#efdbbe"/><rect x="739" y="48" width="11" height="11" rx="0" fill="#0e0b0e"/><rect x="756" y="31" width="11" height="11" rx="0" fill="#ed8f91"/><rect x="756" y="48" width="11" height="11" rx="0" fill="#0e0b0e"/>
</svg>
