<svg xmlns="http://www.w3.org/2000/svg" width="420" height="248" viewBox="0 0 420 248" role="img" aria-labelledby="title desc">
<title id="title">Contacting Joshua</title>
<desc id="desc">GitHub. Kynex Media. Shipwright Systems. Follow / Connect. View Projects. Use the real text links next to this graphic; the image contains no embedded links.</desc>
<defs>
 <linearGradient id="blue" x2="0" y2="1"><stop stop-color="#367bea"/><stop offset=".47" stop-color="#245bda"/><stop offset=".48" stop-color="#1748c4"/><stop offset="1" stop-color="#143b9e"/></linearGradient>
 <linearGradient id="silver" x2="0" y2="1"><stop stop-color="#c6d3e6"/><stop offset="1" stop-color="#647997"/></linearGradient>
 <pattern id="grid" width="16" height="16" patternUnits="userSpaceOnUse"><path d="M16 0H0V16" fill="none" stroke="#283954" stroke-width=".7"/></pattern>
 </defs>
<rect x="3" y="4" width="414" height="241" rx="5" fill="#0b1425"/><rect x="1" y="1" width="414" height="242" rx="4" fill="#111b30" stroke="#546886" stroke-width="1"/><rect x="3" y="3" width="410" height="238" rx="2" fill="none" stroke="#17243c" stroke-width="1"/><rect x="5" y="5" width="406" height="38" rx="2" fill="url(#blue)"/><rect x="11" y="11" width="7" height="7" rx="0" fill="#73c7ff"/><rect x="20" y="11" width="7" height="7" rx="0" fill="#fff"/><rect x="11" y="20" width="7" height="7" rx="0" fill="#fff"/><rect x="20" y="20" width="7" height="7" rx="0" fill="#73c7ff"/><text x="39" y="30" fill="#fff" font-family="Arial, Helvetica, sans-serif" font-size="18" font-weight="700" text-anchor="start">Contacting Joshua</text><rect x="19" y="57" width="377" height="29" rx="2" fill="#17243c" stroke="#283954" stroke-width="1"/><rect x="26" y="64" width="15" height="15" rx="1" fill="#73c7ff"/><rect x="30" y="68" width="7" height="7" rx="1" fill="#152744"/><text x="54" y="78" fill="#f4f7ff" font-family="Arial, Helvetica, sans-serif" font-size="20" font-weight="700" text-anchor="start">GitHub</text><text x="376" y="79" fill="#b3c3df" font-family="Arial, Helvetica, sans-serif" font-size="23" font-weight="700" text-anchor="start">›</text><rect x="19" y="92" width="377" height="29" rx="2" fill="#17243c" stroke="#283954" stroke-width="1"/><rect x="26" y="99" width="15" height="15" rx="1" fill="#e94197"/><rect x="30" y="103" width="7" height="7" rx="1" fill="#152744"/><text x="54" y="113" fill="#f4f7ff" font-family="Arial, Helvetica, sans-serif" font-size="20" font-weight="700" text-anchor="start">Kynex Media</text><text x="376" y="114" fill="#b3c3df" font-family="Arial, Helvetica, sans-serif" font-size="23" font-weight="700" text-anchor="start">›</text><rect x="19" y="127" width="377" height="29" rx="2" fill="#17243c" stroke="#283954" stroke-width="1"/><rect x="26" y="134" width="15" height="15" rx="1" fill="#ffad55"/><rect x="30" y="138" width="7" height="7" rx="1" fill="#152744"/><text x="54" y="148" fill="#f4f7ff" font-family="Arial, Helvetica, sans-serif" font-size="20" font-weight="700" text-anchor="start">Shipwright Systems</text><text x="376" y="149" fill="#b3c3df" font-family="Arial, Helvetica, sans-serif" font-size="23" font-weight="700" text-anchor="start">›</text><rect x="19" y="162" width="377" height="29" rx="2" fill="#17243c" stroke="#283954" stroke-width="1"/><rect x="26" y="169" width="15" height="15" rx="1" fill="#b6ed68"/><path d="M29 176H38" stroke="#152744" stroke-width="2"/><path d="M33.5 172L33.5 181" stroke="#152744" stroke-width="2"/><text x="54" y="183" fill="#f4f7ff" font-family="Arial, Helvetica, sans-serif" font-size="20" font-weight="700" text-anchor="start">Follow / Connect</text><text x="376" y="184" fill="#b3c3df" font-family="Arial, Helvetica, sans-serif" font-size="23" font-weight="700" text-anchor="start">›</text><rect x="19" y="197" width="377" height="29" rx="2" fill="#17243c" stroke="#283954" stroke-width="1"/><rect x="26" y="204" width="15" height="15" rx="1" fill="#c0a7ff"/><rect x="30" y="208" width="7" height="7" rx="1" fill="#152744"/><text x="54" y="218" fill="#f4f7ff" font-family="Arial, Helvetica, sans-serif" font-size="20" font-weight="700" text-anchor="start">View Projects</text><text x="376" y="219" fill="#b3c3df" font-family="Arial, Helvetica, sans-serif" font-size="23" font-weight="700" text-anchor="start">›</text>
</svg>
