<svg xmlns="http://www.w3.org/2000/svg" width="420" height="54" viewBox="0 194 420 54" role="img">
<title id="title">Contacting Joshua</title>
<desc id="desc">GitHub. Kynex Media. Shipwright Systems. Follow / Connect. View Projects. Use the real text links next to this graphic; the image contains no embedded links.</desc>
<defs>
 <linearGradient id="oxblood" x2="0" y2="1"><stop stop-color="#ba3a4d"/><stop offset=".47" stop-color="#a12a3e"/><stop offset=".48" stop-color="#7d1d30"/><stop offset="1" stop-color="#5b1524"/></linearGradient>
 <linearGradient id="silver" x2="0" y2="1"><stop stop-color="#fffaf6"/><stop offset="1" stop-color="#d5c7c3"/></linearGradient>
 <pattern id="grid" width="16" height="16" patternUnits="userSpaceOnUse"><path d="M16 0H0V16" fill="none" stroke="#dfd2cd" stroke-width=".7"/></pattern>
 </defs>
<rect x="3" y="4" width="414" height="241" rx="5" fill="#ede3df"/><rect x="1" y="1" width="414" height="242" rx="4" fill="#f6f2ee" stroke="#b5a3a8" stroke-width="1"/><rect x="3" y="3" width="410" height="238" rx="2" fill="none" stroke="#fffaf6" stroke-width="1"/><rect x="5" y="5" width="406" height="38" rx="2" fill="url(#oxblood)"/><rect x="11" y="11" width="7" height="7" rx="0" fill="#ed8f91"/><rect x="20" y="11" width="7" height="7" rx="0" fill="#fff6ef"/><rect x="11" y="20" width="7" height="7" rx="0" fill="#fff6ef"/><rect x="20" y="20" width="7" height="7" rx="0" fill="#ed8f91"/><text x="39" y="30" fill="#fff6ef" font-family="Arial, Helvetica, sans-serif" font-size="18" font-weight="700" text-anchor="start">Contacting Joshua</text><rect x="19" y="57" width="377" height="29" rx="2" fill="#fffaf6" stroke="#dfd2cd" stroke-width="1"/><rect x="26" y="64" width="15" height="15" rx="1" fill="#ed8f91"/><rect x="30" y="68" width="7" height="7" rx="1" fill="#261d21"/><text x="54" y="78" fill="#261d21" font-family="Arial, Helvetica, sans-serif" font-size="20" font-weight="700" text-anchor="start">GitHub</text><text x="376" y="79" fill="#65545a" font-family="Arial, Helvetica, sans-serif" font-size="23" font-weight="700" text-anchor="start">›</text><rect x="19" y="92" width="377" height="29" rx="2" fill="#fffaf6" stroke="#dfd2cd" stroke-width="1"/><rect x="26" y="99" width="15" height="15" rx="1" fill="#d53b4d"/><rect x="30" y="103" width="7" height="7" rx="1" fill="#261d21"/><text x="54" y="113" fill="#261d21" font-family="Arial, Helvetica, sans-serif" font-size="20" font-weight="700" text-anchor="start">Kynex Media</text><text x="376" y="114" fill="#65545a" font-family="Arial, Helvetica, sans-serif" font-size="23" font-weight="700" text-anchor="start">›</text><rect x="19" y="127" width="377" height="29" rx="2" fill="#fffaf6" stroke="#dfd2cd" stroke-width="1"/><rect x="26" y="134" width="15" height="15" rx="1" fill="#d9a681"/><rect x="30" y="138" width="7" height="7" rx="1" fill="#261d21"/><text x="54" y="148" fill="#261d21" font-family="Arial, Helvetica, sans-serif" font-size="20" font-weight="700" text-anchor="start">Shipwright Systems</text><text x="376" y="149" fill="#65545a" font-family="Arial, Helvetica, sans-serif" font-size="23" font-weight="700" text-anchor="start">›</text><rect x="19" y="162" width="377" height="29" rx="2" fill="#fffaf6" stroke="#dfd2cd" stroke-width="1"/><rect x="26" y="169" width="15" height="15" rx="1" fill="#efdbbe"/><path d="M29 176H38" stroke="#261d21" stroke-width="2"/><path d="M33.5 172L33.5 181" stroke="#261d21" stroke-width="2"/><text x="54" y="183" fill="#261d21" font-family="Arial, Helvetica, sans-serif" font-size="20" font-weight="700" text-anchor="start">Follow / Connect</text><text x="376" y="184" fill="#65545a" font-family="Arial, Helvetica, sans-serif" font-size="23" font-weight="700" text-anchor="start">›</text><rect x="19" y="197" width="377" height="29" rx="2" fill="#fffaf6" stroke="#dfd2cd" stroke-width="1"/><rect x="26" y="204" width="15" height="15" rx="1" fill="#b4989d"/><rect x="30" y="208" width="7" height="7" rx="1" fill="#261d21"/><text x="54" y="218" fill="#261d21" font-family="Arial, Helvetica, sans-serif" font-size="20" font-weight="700" text-anchor="start">View Projects</text><text x="376" y="219" fill="#65545a" font-family="Arial, Helvetica, sans-serif" font-size="23" font-weight="700" text-anchor="start">›</text>
</svg>