<svg xmlns="http://www.w3.org/2000/svg" width="600" height="200" viewBox="0 0 600 200" role="img" aria-labelledby="title desc">
<title id="title">Joshua Williams // mrjw717</title>
<desc id="desc">Build. Test. Verify. Ship. Profile powered by questionable amounts of software.</desc>
<defs>
 <linearGradient id="oxblood" x2="0" y2="1"><stop stop-color="#ba3a4d"/><stop offset=".47" stop-color="#a12a3e"/><stop offset=".48" stop-color="#7d1d30"/><stop offset="1" stop-color="#5b1524"/></linearGradient>
 <linearGradient id="silver" x2="0" y2="1"><stop stop-color="#fffaf6"/><stop offset="1" stop-color="#d5c7c3"/></linearGradient>
 <pattern id="grid" width="16" height="16" patternUnits="userSpaceOnUse"><path d="M16 0H0V16" fill="none" stroke="#dfd2cd" stroke-width=".7"/></pattern>
 </defs>
<rect x="3" y="4" width="594" height="193" rx="5" fill="#ede3df"/><rect x="1" y="1" width="594" height="194" rx="4" fill="#f6f2ee" stroke="#b5a3a8" stroke-width="1"/><rect x="3" y="3" width="590" height="190" rx="2" fill="none" stroke="#fffaf6" stroke-width="1"/><rect x="5" y="5" width="586" height="27" rx="2" fill="url(#oxblood)"/><text x="18" y="23" fill="#fff6ef" font-family="Consolas, Liberation Mono, monospace" font-size="12" font-weight="700" text-anchor="start">END OF PROFILE  /  KEEP BUILDING</text><text x="27" y="84" fill="#261d21" font-family="Arial, Helvetica, sans-serif" font-size="24" font-weight="700" text-anchor="start">Joshua Williams // mrjw717</text><text x="27" y="122" fill="#9b263b" font-family="Consolas, Liberation Mono, monospace" font-size="22" font-weight="700" text-anchor="start">BUILD • TEST • VERIFY • SHIP</text><text x="28" y="167" fill="#65545a" font-family="Arial, Helvetica, sans-serif" font-size="16" font-weight="400" text-anchor="start">Profile powered by questionable amounts of software.</text><rect x="516" y="50" width="10" height="10" rx="0" fill="#d53b4d"/><rect x="531" y="50" width="10" height="10" rx="0" fill="#d9a681"/><rect x="546" y="50" width="10" height="10" rx="0" fill="#efdbbe"/><rect x="561" y="50" width="10" height="10" rx="0" fill="#ed8f91"/>
</svg>
