<svg xmlns="http://www.w3.org/2000/svg" width="1200" height="180" viewBox="0 0 1200 180" role="img" aria-labelledby="title desc">
<title id="title">Joshua Williams // mrjw717</title>
<desc id="desc">Build. Test. Verify. Ship. Profile powered by questionable amounts of software.</desc>
<defs>
 <linearGradient id="blue" x2="0" y2="1"><stop stop-color="#367bea"/><stop offset=".47" stop-color="#245bda"/><stop offset=".48" stop-color="#1748c4"/><stop offset="1" stop-color="#143b9e"/></linearGradient>
 <linearGradient id="silver" x2="0" y2="1"><stop stop-color="#c6d3e6"/><stop offset="1" stop-color="#647997"/></linearGradient>
 <pattern id="grid" width="16" height="16" patternUnits="userSpaceOnUse"><path d="M16 0H0V16" fill="none" stroke="#283954" stroke-width=".7"/></pattern>
 </defs>
<rect x="3" y="4" width="1194" height="173" rx="5" fill="#0b1425"/><rect x="1" y="1" width="1194" height="174" rx="4" fill="#111b30" stroke="#546886" stroke-width="1"/><rect x="3" y="3" width="1190" height="170" rx="2" fill="none" stroke="#17243c" stroke-width="1"/><rect x="5" y="5" width="1186" height="27" rx="2" fill="url(#blue)"/><text x="18" y="23" fill="#fff" font-family="Consolas, Liberation Mono, monospace" font-size="12" font-weight="700" text-anchor="start">END OF PROFILE  /  KEEP BUILDING</text><text x="27" y="84" fill="#f4f7ff" font-family="Arial, Helvetica, sans-serif" font-size="30" font-weight="700" text-anchor="start">Joshua Williams // mrjw717</text><text x="27" y="122" fill="#73c7ff" font-family="Consolas, Liberation Mono, monospace" font-size="25" font-weight="700" text-anchor="start">BUILD • TEST • VERIFY • SHIP</text><text x="28" y="156" fill="#b3c3df" font-family="Arial, Helvetica, sans-serif" font-size="16" font-weight="400" text-anchor="start">Profile powered by questionable amounts of software.</text><rect x="1116" y="50" width="10" height="10" rx="0" fill="#e94197"/><rect x="1131" y="50" width="10" height="10" rx="0" fill="#ffad55"/><rect x="1146" y="50" width="10" height="10" rx="0" fill="#b6ed68"/><rect x="1161" y="50" width="10" height="10" rx="0" fill="#73c7ff"/>
</svg>
