<svg xmlns="http://www.w3.org/2000/svg" width="600" height="430" viewBox="0 0 600 430" role="img" aria-labelledby="title desc">
<title id="title">Joshua Williams&#x27;s personal desktop</title>
<desc id="desc">Software Builder. Founder. Product Architect. @mrjw717. Illustrated files, application windows and a project folder, framed in portrait-inspired charcoal and crimson.</desc>
<defs>
 <linearGradient id="oxblood" x2="0" y2="1"><stop stop-color="#ba3a4d"/><stop offset=".47" stop-color="#a12a3e"/><stop offset=".48" stop-color="#7d1d30"/><stop offset="1" stop-color="#5b1524"/></linearGradient>
 <linearGradient id="silver" x2="0" y2="1"><stop stop-color="#ded3cc"/><stop offset="1" stop-color="#a3908d"/></linearGradient>
 <pattern id="grid" width="16" height="16" patternUnits="userSpaceOnUse"><path d="M16 0H0V16" fill="none" stroke="#32252c" stroke-width=".7"/></pattern>
 </defs>
<rect x="3" y="4" width="594" height="423" rx="5" fill="#0e0b0e"/><rect x="1" y="1" width="594" height="424" rx="4" fill="#151114" stroke="#735761" stroke-width="1"/><rect x="3" y="3" width="590" height="420" rx="2" fill="none" stroke="#211a1e" stroke-width="1"/><rect x="5" y="5" width="586" height="416" rx="3" fill="#151114"/><rect x="5" y="5" width="586" height="34" rx="2" fill="url(#oxblood)"/><rect x="17" y="15" width="7" height="7" rx="0" fill="#efdbbe"/><rect x="27" y="15" width="7" height="7" rx="0" fill="#d53b4d"/><text x="46" y="28" fill="#fff6ef" font-family="Consolas, Liberation Mono, monospace" font-size="15" font-weight="700" text-anchor="start">JOSHUA&#x27;S DESKTOP</text><text x="510" y="28" fill="#f6dfe0" font-family="Consolas, Liberation Mono, monospace" font-size="13" font-weight="700" text-anchor="start">[ JW ]</text><rect x="5" y="40" width="586" height="355" rx="0" fill="url(#grid)"/><text x="26" y="108" fill="#fff6ef" font-family="Arial, Helvetica, sans-serif" font-size="58" font-weight="800" text-anchor="start">Joshua</text><text x="24" y="170" fill="#fff6ef" font-family="Arial, Helvetica, sans-serif" font-size="70" font-weight="800" text-anchor="start">Williams</text><text x="28" y="207" fill="#cdbeb8" font-family="Arial, Helvetica, sans-serif" font-size="24" font-weight="700" text-anchor="start">Software Builder • Founder</text><text x="28" y="240" fill="#cdbeb8" font-family="Arial, Helvetica, sans-serif" font-size="24" font-weight="700" text-anchor="start">Product Architect</text><text x="29" y="281" fill="#ed8f91" font-family="Consolas, Liberation Mono, monospace" font-size="21" font-weight="700" text-anchor="start">@mrjw717</text><rect x="28" y="315" width="540" height="73" rx="5" fill="#0e0b0e" stroke="#735761" stroke-width="1"/><rect x="34" y="321" width="528" height="5" rx="2" fill="url(#silver)"/><rect x="57" y="339" width="22" height="28" rx="2" fill="#efdbbe"/><rect x="61" y="345" width="14" height="3" rx="0" fill="#45242f"/><rect x="61" y="352" width="14" height="3" rx="0" fill="#45242f"/><text x="88" y="359" fill="#fff6ef" font-family="Consolas, Liberation Mono, monospace" font-size="13" font-weight="700" text-anchor="start">ABOUT.TXT</text><rect x="226" y="339" width="22" height="28" rx="2" fill="#d53b4d"/><rect x="230" y="345" width="14" height="3" rx="0" fill="#45242f"/><rect x="230" y="352" width="14" height="3" rx="0" fill="#45242f"/><text x="257" y="359" fill="#fff6ef" font-family="Consolas, Liberation Mono, monospace" font-size="13" font-weight="700" text-anchor="start">PROJECTS</text><rect x="395" y="339" width="22" height="28" rx="2" fill="#d9a681"/><rect x="399" y="345" width="14" height="3" rx="0" fill="#45242f"/><rect x="399" y="352" width="14" height="3" rx="0" fill="#45242f"/><text x="426" y="359" fill="#fff6ef" font-family="Consolas, Liberation Mono, monospace" font-size="13" font-weight="700" text-anchor="start">BUILD.LOG</text><path d="M532 97.2V118.8M521.2 108H542.8" stroke="#d53b4d" stroke-width="3.5999999999999996"/><path d="M491 260.7V273.3M484.7 267H497.3" stroke="#d9a681" stroke-width="2.0999999999999996"/><rect x="5" y="399" width="586" height="22" rx="1" fill="url(#silver)"/><text x="20" y="415" fill="#261d21" font-family="Consolas, Liberation Mono, monospace" font-size="12" font-weight="700" text-anchor="start">4 PROJECTS  /  ALWAYS BUILDING</text><rect x="536" y="404" width="38" height="11" rx="1" fill="#d53b4d"/>
</svg>
