<svg xmlns="http://www.w3.org/2000/svg" width="1200" height="100" viewBox="0 0 1200 100" role="img" aria-labelledby="title desc">
<title id="title">Joshua&#x27;s Top Projects</title>
<desc id="desc">TOP 4 // NO PARTICULAR ORDER</desc>
<defs>
 <linearGradient id="blue" x2="0" y2="1"><stop stop-color="#367bea"/><stop offset=".47" stop-color="#245bda"/><stop offset=".48" stop-color="#1748c4"/><stop offset="1" stop-color="#143b9e"/></linearGradient>
 <linearGradient id="silver" x2="0" y2="1"><stop stop-color="#c6d3e6"/><stop offset="1" stop-color="#647997"/></linearGradient>
 <pattern id="grid" width="16" height="16" patternUnits="userSpaceOnUse"><path d="M16 0H0V16" fill="none" stroke="#283954" stroke-width=".7"/></pattern>
 </defs>
<rect x="3" y="4" width="1194" height="93" rx="5" fill="#0b1425"/><rect x="1" y="1" width="1194" height="94" rx="4" fill="#111b30" stroke="#546886" stroke-width="1"/><rect x="3" y="3" width="1190" height="90" rx="2" fill="none" stroke="#17243c" stroke-width="1"/><rect x="5" y="5" width="1186" height="86" rx="2" fill="#17243c"/><rect x="5" y="5" width="12" height="86" rx="0" fill="#ffad55"/><rect x="18" y="5" width="1173" height="8" rx="0" fill="url(#blue)"/><text x="34" y="63" fill="#f4f7ff" font-family="Arial, Helvetica, sans-serif" font-size="47" font-weight="700" text-anchor="start">Joshua&#x27;s Top Projects</text><text x="35" y="86" fill="#b3c3df" font-family="Consolas, Liberation Mono, monospace" font-size="14" font-weight="700" text-anchor="start">TOP 4 // NO PARTICULAR ORDER</text><rect x="1105" y="31" width="11" height="11" rx="0" fill="#e94197"/><rect x="1105" y="48" width="11" height="11" rx="0" fill="#0b1425"/><rect x="1122" y="31" width="11" height="11" rx="0" fill="#ffad55"/><rect x="1122" y="48" width="11" height="11" rx="0" fill="#0b1425"/><rect x="1139" y="31" width="11" height="11" rx="0" fill="#b6ed68"/><rect x="1139" y="48" width="11" height="11" rx="0" fill="#0b1425"/><rect x="1156" y="31" width="11" height="11" rx="0" fill="#73c7ff"/><rect x="1156" y="48" width="11" height="11" rx="0" fill="#0b1425"/>
</svg>
